<svg xmlns="http://www.w3.org/2000/svg" xmlns:xlink="http://www.w3.org/1999/xlink" width="500" zoomAndPan="magnify" viewBox="0 0 375 374.999991" height="500" preserveAspectRatio="xMidYMid meet" version="1.0"><defs><filter x="0%" y="0%" width="100%" height="100%" id="b48b818f9a"><feColorMatrix values="0 0 0 0 1 0 0 0 0 1 0 0 0 0 1 0 0 0 1 0" color-interpolation-filters="sRGB"/></filter><clipPath id="38e82c8650"><path d="M 66 324.246094 L 67 324.246094 L 67 325 L 66 325 Z M 66 324.246094 " clip-rule="nonzero"/></clipPath><clipPath id="a6e239dcea"><path d="M 65 324.246094 L 66 324.246094 L 66 325 L 65 325 Z M 65 324.246094 " clip-rule="nonzero"/></clipPath><clipPath id="815c24c49c"><path d="M 65 324.246094 L 67 324.246094 L 67 326 L 65 326 Z M 65 324.246094 " clip-rule="nonzero"/></clipPath><clipPath id="4ff1ed8686"><path d="M 64.777344 324.246094 L 71.527344 324.246094 L 71.527344 329.496094 L 64.777344 329.496094 Z M 64.777344 324.246094 " clip-rule="nonzero"/></clipPath><mask id="d69b419bee"><g filter="url(#b48b818f9a)"><rect x="-37.5" width="450" fill="#000000" y="-37.499999" height="449.999989" fill-opacity="0.3"/></g></mask><clipPath id="a31c1d71cd"><path d="M 0.398438 0.558594 L 158.800781 0.558594 L 158.800781 188.960938 L 0.398438 188.960938 Z M 0.398438 0.558594 " clip-rule="nonzero"/></clipPath><clipPath id="f828e65b9d"><rect x="0" width="159" y="0" height="189"/></clipPath></defs><g clip-path="url(#38e82c8650)"><path fill="#000000" d="M 66.34375 324.824219 C 66.402344 324.824219 66.453125 324.777344 66.453125 324.714844 C 66.453125 324.65625 66.402344 324.609375 66.34375 324.609375 C 66.28125 324.609375 66.234375 324.65625 66.234375 324.714844 C 66.234375 324.777344 66.28125 324.824219 66.34375 324.824219 Z M 66.34375 324.824219 " fill-opacity="1" fill-rule="nonzero"/></g><g clip-path="url(#a6e239dcea)"><path fill="#000000" d="M 65.460938 324.824219 C 65.519531 324.824219 65.570312 324.777344 65.570312 324.714844 C 65.570312 324.65625 65.519531 324.609375 65.460938 324.609375 C 65.398438 324.609375 65.351562 324.65625 65.351562 324.714844 C 65.351562 324.777344 65.398438 324.824219 65.460938 324.824219 Z M 65.460938 324.824219 " fill-opacity="1" fill-rule="nonzero"/></g><g clip-path="url(#815c24c49c)"><path fill="#000000" d="M 65.441406 325.039062 C 65.429688 325.0625 65.4375 325.09375 65.464844 325.105469 C 65.488281 325.121094 65.519531 325.109375 65.535156 325.085938 C 65.535156 325.082031 65.605469 324.953125 65.726562 324.875 C 65.710938 324.90625 65.707031 324.945312 65.726562 324.980469 C 65.746094 325.019531 65.785156 325.046875 65.832031 325.046875 L 65.847656 325.046875 C 65.832031 325.109375 65.792969 325.148438 65.722656 325.171875 C 65.695312 325.183594 65.679688 325.210938 65.691406 325.238281 C 65.699219 325.257812 65.71875 325.273438 65.738281 325.273438 C 65.746094 325.273438 65.753906 325.269531 65.757812 325.269531 C 65.824219 325.246094 65.871094 325.210938 65.90625 325.164062 C 65.941406 325.210938 65.988281 325.246094 66.054688 325.269531 C 66.058594 325.269531 66.066406 325.273438 66.074219 325.273438 C 66.09375 325.273438 66.113281 325.257812 66.121094 325.238281 C 66.132812 325.210938 66.117188 325.183594 66.089844 325.171875 C 66.019531 325.148438 65.980469 325.105469 65.964844 325.046875 L 65.984375 325.046875 C 66.027344 325.046875 66.070312 325.019531 66.089844 324.980469 C 66.105469 324.945312 66.105469 324.90625 66.085938 324.871094 C 66.203125 324.949219 66.261719 325.078125 66.261719 325.082031 C 66.269531 325.101562 66.289062 325.113281 66.308594 325.113281 C 66.316406 325.113281 66.324219 325.109375 66.328125 325.109375 C 66.355469 325.097656 66.367188 325.066406 66.359375 325.042969 C 66.351562 325.027344 66.21875 324.71875 65.90625 324.71875 C 65.90625 324.71875 65.90625 324.714844 65.90625 324.714844 C 65.613281 324.71875 65.449219 325.023438 65.441406 325.039062 Z M 65.917969 324.824219 L 65.996094 324.921875 C 66 324.925781 65.996094 324.933594 65.996094 324.9375 C 65.992188 324.941406 65.992188 324.945312 65.984375 324.945312 L 65.832031 324.945312 C 65.824219 324.945312 65.820312 324.941406 65.816406 324.9375 C 65.816406 324.933594 65.816406 324.925781 65.820312 324.921875 L 65.894531 324.824219 C 65.898438 324.820312 65.902344 324.820312 65.90625 324.820312 C 65.910156 324.820312 65.914062 324.820312 65.917969 324.824219 Z M 65.917969 324.824219 " fill-opacity="1" fill-rule="nonzero"/></g><g clip-path="url(#4ff1ed8686)"><path fill="#000000" d="M 71.195312 327.230469 C 70.992188 326.667969 70.652344 325.980469 69.796875 325.625 C 69.007812 325.300781 68.230469 325.671875 67.8125 325.875 C 67.699219 325.925781 67.589844 325.980469 67.554688 325.980469 C 67.402344 325.980469 67.316406 325.878906 67.300781 325.855469 C 67.292969 325.832031 67.285156 325.808594 67.277344 325.785156 C 67.207031 325.621094 67.070312 325.480469 66.964844 325.390625 C 66.898438 325.332031 66.851562 325.25 66.835938 325.160156 C 66.832031 325.140625 66.828125 325.121094 66.824219 325.101562 C 66.859375 325.089844 66.894531 325.066406 66.925781 325.035156 C 66.972656 324.988281 67.019531 324.898438 66.972656 324.753906 C 66.9375 324.652344 66.886719 324.585938 66.8125 324.554688 C 66.753906 324.53125 66.699219 324.53125 66.660156 324.539062 C 66.628906 324.476562 66.59375 324.421875 66.554688 324.382812 C 66.410156 324.242188 66.214844 324.277344 66.042969 324.308594 C 65.976562 324.320312 65.914062 324.332031 65.859375 324.332031 C 65.804688 324.332031 65.757812 324.324219 65.703125 324.3125 C 65.574219 324.289062 65.425781 324.261719 65.242188 324.398438 C 65.199219 324.425781 65.164062 324.46875 65.136719 324.519531 C 65.023438 324.519531 64.847656 324.570312 64.816406 324.777344 C 64.789062 324.972656 64.921875 325.085938 65.023438 325.128906 C 65.023438 325.183594 65.027344 325.21875 65.027344 325.222656 C 65.03125 325.316406 65.042969 325.394531 65.066406 325.46875 C 65.046875 325.539062 64.96875 325.859375 65.023438 326.226562 C 65.0625 326.46875 65.152344 326.667969 65.222656 326.789062 C 65.261719 326.855469 65.285156 326.933594 65.289062 327.015625 C 65.300781 327.144531 65.339844 327.328125 65.464844 327.488281 C 65.578125 327.628906 65.726562 327.726562 65.839844 327.789062 L 65.769531 328.101562 C 65.765625 328.132812 65.738281 328.152344 65.707031 328.15625 C 65.640625 328.15625 65.582031 328.175781 65.527344 328.203125 C 65.449219 328.246094 65.410156 328.335938 65.433594 328.421875 C 65.457031 328.511719 65.535156 328.570312 65.625 328.570312 L 65.921875 328.570312 C 65.960938 328.636719 66.03125 328.675781 66.113281 328.675781 L 66.871094 328.675781 C 66.929688 328.675781 66.984375 328.648438 67.019531 328.601562 C 67.050781 328.554688 67.058594 328.496094 67.039062 328.441406 C 67.019531 328.398438 67.027344 328.347656 67.054688 328.308594 C 67.085938 328.261719 67.113281 328.214844 67.136719 328.167969 C 67.382812 328.222656 67.632812 328.25 67.894531 328.25 C 68.015625 328.25 68.136719 328.242188 68.261719 328.230469 C 68.226562 328.277344 68.210938 328.339844 68.226562 328.402344 C 68.25 328.488281 68.324219 328.542969 68.414062 328.542969 L 68.746094 328.542969 C 68.769531 328.613281 68.835938 328.660156 68.914062 328.660156 L 70.273438 328.660156 C 70.277344 328.660156 70.277344 328.660156 70.28125 328.660156 C 70.28125 328.660156 70.285156 328.660156 70.285156 328.660156 C 70.289062 328.660156 70.292969 328.660156 70.300781 328.660156 C 70.316406 328.65625 70.328125 328.640625 70.335938 328.625 C 70.410156 328.5625 70.46875 328.484375 70.519531 328.394531 C 70.511719 328.519531 70.472656 328.671875 70.34375 328.796875 C 70.1875 328.949219 69.964844 328.949219 69.730469 328.953125 C 69.585938 328.953125 69.441406 328.953125 69.308594 328.992188 C 68.957031 329.09375 68.773438 329.40625 68.765625 329.417969 C 68.757812 329.4375 68.757812 329.460938 68.773438 329.476562 C 68.785156 329.488281 68.796875 329.496094 68.8125 329.496094 C 68.820312 329.496094 68.824219 329.492188 68.832031 329.492188 C 69 329.421875 69.273438 329.433594 69.5625 329.445312 C 70.074219 329.464844 70.65625 329.488281 70.992188 329.121094 C 71.519531 328.546875 71.394531 327.777344 71.195312 327.230469 Z M 66.769531 324.648438 C 66.816406 324.667969 66.851562 324.714844 66.871094 324.785156 C 66.894531 324.851562 66.894531 324.90625 66.867188 324.945312 C 66.847656 324.972656 66.824219 324.988281 66.804688 325 C 66.777344 324.875 66.742188 324.75 66.699219 324.636719 C 66.722656 324.636719 66.746094 324.636719 66.769531 324.648438 Z M 64.921875 324.789062 C 64.9375 324.671875 65.023438 324.636719 65.089844 324.625 C 65.046875 324.75 65.03125 324.894531 65.027344 325.011719 C 64.96875 324.976562 64.902344 324.910156 64.921875 324.789062 Z M 65.535156 328.394531 C 65.523438 328.363281 65.53125 328.320312 65.578125 328.292969 C 65.617188 328.273438 65.664062 328.257812 65.710938 328.257812 C 65.789062 328.253906 65.855469 328.199219 65.871094 328.125 L 65.933594 327.839844 C 65.980469 327.859375 66.011719 327.871094 66.015625 327.871094 C 66.035156 327.878906 66.058594 327.875 66.074219 327.859375 C 66.089844 327.839844 66.101562 327.820312 66.113281 327.796875 C 66.1875 327.898438 66.285156 327.972656 66.402344 328.015625 L 66.398438 328.042969 C 66.382812 328.097656 66.335938 328.136719 66.28125 328.148438 C 66.15625 328.171875 66.054688 328.21875 65.96875 328.289062 C 65.914062 328.335938 65.886719 328.398438 65.886719 328.46875 L 65.625 328.46875 C 65.570312 328.46875 65.542969 328.429688 65.535156 328.394531 Z M 66.96875 328.25 C 66.921875 328.316406 66.910156 328.402344 66.941406 328.476562 C 66.949219 328.5 66.945312 328.523438 66.933594 328.542969 C 66.917969 328.5625 66.898438 328.574219 66.871094 328.574219 L 66.113281 328.574219 C 66.050781 328.574219 66.015625 328.535156 66 328.5 C 66 328.496094 66 328.496094 66 328.496094 C 65.984375 328.460938 65.988281 328.40625 66.035156 328.367188 C 66.105469 328.308594 66.195312 328.269531 66.296875 328.25 C 66.394531 328.230469 66.472656 328.160156 66.496094 328.070312 L 66.515625 328 L 66.601562 327.695312 L 66.65625 327.765625 C 66.667969 327.777344 66.683594 327.785156 66.699219 327.785156 C 66.71875 327.785156 66.734375 327.773438 66.742188 327.761719 L 66.820312 327.640625 L 66.933594 327.75 C 66.945312 327.761719 66.960938 327.765625 66.976562 327.765625 C 66.996094 327.761719 67.007812 327.75 67.015625 327.738281 L 67.097656 327.582031 C 67.160156 327.820312 67.117188 328.039062 66.96875 328.25 Z M 68.328125 328.375 C 68.320312 328.339844 68.324219 328.296875 68.371094 328.273438 C 68.445312 328.230469 68.539062 328.199219 68.640625 328.179688 C 68.644531 328.179688 68.644531 328.179688 68.644531 328.179688 C 68.75 328.160156 68.855469 328.136719 68.960938 328.109375 C 69.03125 328.15625 69.105469 328.195312 69.179688 328.222656 C 69.0625 328.246094 68.949219 328.28125 68.839844 328.332031 C 68.792969 328.355469 68.761719 328.394531 68.746094 328.4375 L 68.414062 328.4375 C 68.363281 328.4375 68.335938 328.40625 68.328125 328.375 Z M 68.84375 328.503906 C 68.839844 328.476562 68.847656 328.445312 68.886719 328.425781 C 69.089844 328.332031 69.300781 328.292969 69.53125 328.304688 L 69.632812 328.410156 C 69.648438 328.421875 69.667969 328.429688 69.6875 328.421875 L 69.945312 328.347656 L 70.011719 328.460938 C 70.023438 328.480469 70.046875 328.492188 70.070312 328.484375 L 70.195312 328.453125 L 70.222656 328.558594 L 68.914062 328.558594 C 68.871094 328.558594 68.851562 328.53125 68.84375 328.503906 Z M 70.914062 329.054688 C 70.613281 329.386719 70.058594 329.363281 69.566406 329.34375 C 69.335938 329.335938 69.117188 329.324219 68.941406 329.355469 C 69.019531 329.265625 69.152344 329.144531 69.335938 329.089844 C 69.457031 329.054688 69.589844 329.054688 69.730469 329.054688 C 69.976562 329.054688 70.230469 329.050781 70.417969 328.867188 C 70.6875 328.605469 70.625 328.242188 70.609375 328.171875 C 70.667969 327.960938 70.683594 327.695312 70.65625 327.375 C 70.65625 327.347656 70.628906 327.328125 70.601562 327.328125 C 70.574219 327.332031 70.550781 327.355469 70.554688 327.382812 C 70.601562 327.917969 70.519531 328.285156 70.316406 328.503906 L 70.285156 328.375 C 70.28125 328.363281 70.273438 328.351562 70.261719 328.34375 C 70.25 328.335938 70.234375 328.335938 70.21875 328.339844 L 70.082031 328.375 L 70.015625 328.261719 C 70.003906 328.242188 69.980469 328.234375 69.957031 328.238281 L 69.6875 328.316406 L 69.59375 328.21875 C 69.589844 328.214844 69.589844 328.214844 69.585938 328.214844 C 69.582031 328.210938 69.582031 328.210938 69.578125 328.207031 C 69.574219 328.207031 69.570312 328.207031 69.566406 328.203125 C 69.5625 328.203125 69.5625 328.203125 69.558594 328.203125 C 69.550781 328.203125 69.546875 328.203125 69.539062 328.203125 C 69.128906 328.171875 68.78125 327.917969 68.472656 327.425781 C 68.457031 327.398438 68.425781 327.390625 68.402344 327.40625 C 68.378906 327.421875 68.371094 327.453125 68.386719 327.476562 C 68.53125 327.710938 68.6875 327.894531 68.855469 328.03125 C 68.261719 328.167969 67.699219 328.183594 67.179688 328.074219 C 67.25 327.871094 67.242188 327.65625 67.15625 327.433594 C 67.148438 327.414062 67.128906 327.402344 67.109375 327.398438 C 67.085938 327.398438 67.070312 327.410156 67.058594 327.425781 L 66.957031 327.628906 L 66.851562 327.527344 C 66.839844 327.515625 66.824219 327.507812 66.808594 327.511719 C 66.792969 327.511719 66.777344 327.519531 66.769531 327.535156 L 66.695312 327.644531 L 66.621094 327.550781 C 66.609375 327.535156 66.589844 327.53125 66.570312 327.53125 C 66.550781 327.535156 66.535156 327.550781 66.53125 327.570312 L 66.433594 327.917969 C 66.292969 327.863281 66.195312 327.765625 66.125 327.617188 C 66.113281 327.59375 66.089844 327.582031 66.0625 327.589844 C 66.039062 327.59375 66.023438 327.617188 66.027344 327.644531 C 66.03125 327.691406 66.027344 327.730469 66.015625 327.761719 C 65.925781 327.722656 65.699219 327.609375 65.546875 327.425781 C 65.4375 327.285156 65.402344 327.121094 65.394531 327.007812 C 65.386719 326.910156 65.359375 326.820312 65.3125 326.738281 C 65.246094 326.625 65.164062 326.4375 65.125 326.210938 C 65.089844 325.980469 65.113281 325.765625 65.136719 325.628906 C 65.164062 325.671875 65.195312 325.710938 65.238281 325.75 C 65.257812 325.769531 65.292969 325.769531 65.3125 325.75 C 65.332031 325.726562 65.332031 325.695312 65.308594 325.675781 C 65.175781 325.550781 65.144531 325.414062 65.128906 325.21875 C 65.117188 325.054688 65.128906 324.605469 65.304688 324.480469 C 65.453125 324.371094 65.558594 324.390625 65.683594 324.414062 C 65.738281 324.425781 65.796875 324.4375 65.859375 324.4375 C 65.921875 324.4375 65.992188 324.421875 66.0625 324.410156 C 66.21875 324.382812 66.378906 324.355469 66.480469 324.457031 C 66.574219 324.546875 66.664062 324.808594 66.734375 325.179688 C 66.753906 325.292969 66.8125 325.394531 66.898438 325.46875 C 66.992188 325.550781 67.117188 325.675781 67.179688 325.824219 C 67.28125 326.066406 67.179688 326.417969 67.175781 326.421875 C 67.167969 326.449219 67.183594 326.480469 67.210938 326.488281 C 67.21875 326.488281 67.222656 326.488281 67.226562 326.488281 C 67.25 326.488281 67.269531 326.472656 67.277344 326.453125 C 67.28125 326.441406 67.339844 326.234375 67.328125 326.015625 C 67.382812 326.050781 67.457031 326.082031 67.554688 326.082031 C 67.617188 326.082031 67.710938 326.035156 67.859375 325.964844 C 68.261719 325.773438 69.007812 325.414062 69.753906 325.722656 C 70.574219 326.058594 70.902344 326.722656 71.097656 327.265625 C 71.285156 327.785156 71.40625 328.515625 70.914062 329.054688 Z M 70.914062 329.054688 " fill-opacity="1" fill-rule="nonzero"/></g><path fill="#000000" d="M 66.523438 325.6875 C 66.375 325.765625 66.277344 325.882812 66.238281 326.039062 C 66.164062 326.015625 66.117188 325.988281 66.101562 325.957031 C 66.089844 325.9375 66.070312 325.925781 66.050781 325.929688 C 66.03125 325.929688 66.011719 325.945312 66.003906 325.960938 C 65.984375 326.019531 65.945312 326.0625 65.886719 326.09375 C 65.832031 326.035156 65.796875 325.972656 65.777344 325.902344 C 65.773438 325.878906 65.753906 325.863281 65.730469 325.859375 C 65.710938 325.859375 65.6875 325.871094 65.679688 325.894531 C 65.65625 325.953125 65.621094 326 65.574219 326.039062 C 65.5625 325.953125 65.519531 325.875 65.453125 325.8125 C 65.429688 325.792969 65.398438 325.796875 65.378906 325.816406 C 65.359375 325.835938 65.359375 325.871094 65.378906 325.890625 C 65.449219 325.953125 65.480469 326.027344 65.472656 326.125 C 65.472656 326.144531 65.480469 326.160156 65.496094 326.171875 C 65.511719 326.179688 65.53125 326.183594 65.546875 326.175781 C 65.617188 326.140625 65.675781 326.09375 65.71875 326.035156 C 65.75 326.09375 65.789062 326.144531 65.839844 326.191406 C 65.851562 326.199219 65.863281 326.207031 65.875 326.207031 C 65.882812 326.207031 65.890625 326.203125 65.898438 326.199219 C 65.96875 326.171875 66.027344 326.125 66.066406 326.070312 C 66.109375 326.105469 66.175781 326.132812 66.265625 326.152344 C 66.277344 326.15625 66.292969 326.152344 66.304688 326.144531 C 66.316406 326.136719 66.324219 326.125 66.328125 326.109375 C 66.355469 325.957031 66.433594 325.851562 66.570312 325.777344 C 66.597656 325.761719 66.605469 325.734375 66.59375 325.707031 C 66.578125 325.683594 66.546875 325.671875 66.523438 325.6875 Z M 66.523438 325.6875 " fill-opacity="1" fill-rule="nonzero"/><path fill="#ffffff" d="M 317.867188 151.257812 C 320.152344 160.296875 321.703125 170.863281 322.273438 183.222656 C 325.9375 262.441406 270.625 301.582031 234.507812 314.550781 C 190 330.527344 127.414062 328.0625 97.171875 293.632812 C 62.832031 254.542969 58.558594 194.160156 69.210938 168.386719 C 75.3125 153.628906 85.09375 151.363281 80.910156 177.230469 C 76.722656 203.097656 88.613281 244.988281 103.734375 261.539062 C 89.5625 212.726562 108.011719 177.992188 117.902344 181.796875 C 127.792969 185.601562 117.140625 209.183594 117.902344 230.488281 C 131.40625 197.929688 170.019531 206.332031 174.964844 233.148438 C 176.597656 232.859375 182.183594 231.160156 183.75 230.253906 C 180.90625 223.308594 179.949219 209.707031 186.375 197.929688 C 193.191406 185.441406 202.066406 184.171875 205.832031 184.40625 C 207.726562 173.664062 203.304688 169.671875 203.019531 153.835938 C 202.359375 117.304688 238.730469 102.179688 257.511719 100.769531 C 270.609375 99.789062 288.871094 102.671875 302.703125 119.316406 C 308.386719 113.429688 323.046875 110.027344 330.523438 122.921875 C 338.988281 137.527344 326.84375 148.980469 317.867188 151.257812 Z M 317.867188 151.257812 C 320.152344 160.296875 321.703125 170.863281 322.273438 183.222656 C 325.9375 262.441406 270.625 301.582031 234.507812 314.550781 C 190 330.527344 127.414062 328.0625 97.171875 293.632812 C 62.832031 254.542969 58.558594 194.160156 69.210938 168.386719 C 75.3125 153.628906 85.09375 151.363281 80.910156 177.230469 C 76.722656 203.097656 88.613281 244.988281 103.734375 261.539062 C 89.5625 212.726562 108.011719 177.992188 117.902344 181.796875 C 127.792969 185.601562 117.140625 209.183594 117.902344 230.488281 C 131.40625 197.929688 170.019531 206.332031 174.964844 233.148438 C 176.597656 232.859375 182.183594 231.160156 183.75 230.253906 C 180.90625 223.308594 179.949219 209.707031 186.375 197.929688 C 193.191406 185.441406 202.066406 184.171875 205.832031 184.40625 C 207.726562 173.664062 203.304688 169.671875 203.019531 153.835938 C 202.359375 117.304688 238.730469 102.179688 257.511719 100.769531 C 270.609375 99.789062 288.871094 102.671875 302.703125 119.316406 C 308.386719 113.429688 323.046875 110.027344 330.523438 122.921875 C 338.988281 137.527344 326.84375 148.980469 317.867188 151.257812 Z M 317.867188 151.257812 " fill-opacity="1" fill-rule="nonzero"/><path fill="#000000" d="M 197.027344 241.710938 C 207.394531 242.898438 210.769531 235.621094 210.769531 235.621094 C 210.769531 235.621094 211.339844 241.753906 222.894531 244.183594 C 230.085938 245.691406 242.769531 242.042969 251.757812 240.617188 C 260.742188 239.1875 261.695312 247.226562 261.695312 247.226562 C 261.695312 247.226562 260.839844 250.457031 245.097656 265.53125 C 229.0625 280.882812 213.929688 282.863281 211.078125 283.648438 C 209.652344 275.515625 198.808594 260.824219 177.984375 264.460938 C 157.15625 268.101562 153.730469 285.71875 153.019531 288.285156 C 150.664062 286.214844 149.757812 271.75 149.953125 263.605469 C 150.144531 255.460938 148.808594 253.378906 148.667969 247.574219 C 155.800781 233.324219 174.964844 233.148438 174.964844 233.148438 L 183.75 230.253906 C 183.75 230.253906 186.660156 240.519531 197.027344 241.710938 Z M 283.257812 219.8125 C 283.257812 219.8125 297.167969 188.878906 285.613281 164.820312 C 281.65625 156.582031 268.683594 155.144531 261.078125 146.773438 C 253.46875 138.40625 243.300781 138.363281 238.109375 140.640625 C 231.167969 143.683594 230.90625 149.074219 222.132812 155.832031 C 218.488281 158.640625 206.71875 161.90625 211.671875 186.742188 C 214.808594 190.449219 220.230469 198.78125 216.425781 215.253906 C 219.019531 214.335938 220.210938 209.445312 232.214844 204.238281 C 259.414062 192.445312 276.816406 198.34375 283.257812 219.8125 Z M 283.257812 219.8125 " fill-opacity="1" fill-rule="nonzero"/><path fill="#ffffff" d="M 221.660156 126.609375 C 216.441406 126.953125 211.824219 130.566406 212.214844 138.808594 C 212.597656 146.957031 220.046875 148.921875 224.457031 148.386719 C 229.195312 147.8125 233.953125 144.214844 233.269531 135.785156 C 232.585938 127.382812 226.140625 126.3125 221.660156 126.609375 Z M 275.761719 124.707031 C 270.542969 125.050781 265.925781 128.664062 266.316406 136.90625 C 266.703125 145.054688 274.152344 147.019531 278.5625 146.484375 C 283.296875 145.90625 288.058594 142.3125 287.371094 133.882812 C 286.691406 125.476562 280.242188 124.410156 275.761719 124.707031 Z M 275.761719 124.707031 " fill-opacity="1" fill-rule="nonzero"/><g mask="url(#d69b419bee)"><g transform="matrix(1, 0, 0, 1, 164, 100)"><g clip-path="url(#f828e65b9d)"><g clip-path="url(#a31c1d71cd)"><path fill="#ffffff" d="M 142.273438 96.070312 C 139.949219 96.234375 137.777344 98.050781 137.902344 103.640625 C 138.019531 109.035156 141.4375 110.066406 143.28125 109.957031 C 145.40625 109.835938 147.597656 107.460938 147.308594 101.949219 C 147.015625 96.398438 144.273438 95.929688 142.273438 96.070312 Z M 138.320312 58.46875 C 137.085938 58.691406 136.027344 59.734375 136.417969 62.527344 C 136.792969 65.230469 138.683594 65.539062 139.664062 65.375 C 140.792969 65.183594 141.828125 63.859375 141.355469 61.113281 C 140.875 58.347656 139.378906 58.277344 138.320312 58.46875 Z M 158.417969 93.277344 C 157.960938 93.496094 157.488281 93.636719 157.015625 93.707031 C 153.726562 94.191406 147.441406 92.578125 146.402344 81.554688 C 145.332031 70.136719 148.949219 66.101562 153.09375 65.433594 C 154.191406 65.257812 155.421875 65.191406 156.640625 65.507812 C 157.421875 70.964844 157.980469 76.851562 158.273438 83.222656 C 158.433594 86.648438 158.472656 90 158.417969 93.277344 Z M 96.738281 12.234375 C 97.023438 13.457031 98.117188 14.460938 100.890625 13.929688 C 103.566406 13.417969 103.78125 11.515625 103.570312 10.546875 C 103.324219 9.425781 101.949219 8.457031 99.230469 9.070312 C 96.492188 9.6875 96.496094 11.183594 96.738281 12.234375 Z M 80.722656 5.246094 C 80.570312 4.65625 80.488281 3.96875 80.707031 3.28125 C 85.382812 1.867188 89.792969 1.046875 93.511719 0.769531 C 93.578125 0.765625 93.648438 0.761719 93.714844 0.757812 C 94.242188 1.152344 94.566406 1.632812 94.691406 2.136719 C 95.058594 3.648438 94.496094 6.648438 89.03125 7.628906 C 83.371094 8.644531 81.21875 7.144531 80.722656 5.246094 Z M 20.839844 171.640625 C 19.871094 169.515625 17.410156 168.117188 12.21875 170.183594 C 7.203125 172.183594 7.433594 175.746094 8.175781 177.433594 C 9.035156 179.378906 12.027344 180.605469 17.085938 178.410156 C 22.183594 176.195312 21.667969 173.460938 20.839844 171.640625 Z M 0.910156 185.613281 C 0.839844 186.863281 1.605469 188.136719 4.417969 188.402344 C 7.132812 188.664062 7.871094 186.898438 7.9375 185.90625 C 8.015625 184.765625 6.96875 183.449219 4.1875 183.273438 C 1.386719 183.097656 0.96875 184.535156 0.910156 185.613281 Z M 0.910156 185.613281 " fill-opacity="1" fill-rule="nonzero"/></g></g></g></g><path fill="#ffffff" d="M 228.203125 164.851562 C 228.214844 164.449219 228.5625 164.132812 228.949219 164.140625 C 229.082031 164.140625 229.214844 164.144531 229.34375 164.144531 C 241.089844 164.144531 241.507812 152.46875 241.519531 151.964844 C 241.519531 151.921875 241.539062 151.886719 241.546875 151.84375 C 241.554688 151.792969 241.558594 151.742188 241.578125 151.695312 C 241.601562 151.644531 241.636719 151.605469 241.667969 151.558594 C 241.6875 151.53125 241.703125 151.496094 241.730469 151.472656 C 241.789062 151.410156 241.859375 151.363281 241.933594 151.324219 C 241.941406 151.324219 241.945312 151.320312 241.949219 151.316406 C 242.015625 151.285156 242.085938 151.277344 242.160156 151.269531 C 242.183594 151.265625 242.207031 151.253906 242.230469 151.253906 C 242.238281 151.253906 242.242188 151.253906 242.246094 151.253906 C 242.25 151.253906 242.253906 151.253906 242.253906 151.253906 C 242.257812 151.253906 242.261719 151.253906 242.261719 151.253906 C 242.300781 151.253906 242.335938 151.269531 242.371094 151.277344 C 242.429688 151.289062 242.484375 151.292969 242.535156 151.3125 C 242.574219 151.332031 242.605469 151.359375 242.640625 151.382812 C 242.683594 151.414062 242.726562 151.433594 242.761719 151.46875 C 242.796875 151.503906 242.816406 151.542969 242.839844 151.582031 C 242.867188 151.621094 242.898438 151.65625 242.917969 151.699219 C 242.933594 151.742188 242.9375 151.789062 242.945312 151.835938 C 242.957031 151.878906 242.976562 151.917969 242.976562 151.964844 C 242.988281 152.46875 243.40625 164.144531 255.148438 164.144531 C 255.28125 164.144531 255.410156 164.140625 255.546875 164.136719 C 255.96875 164.136719 256.28125 164.449219 256.289062 164.851562 C 256.296875 165.253906 255.980469 165.589844 255.578125 165.597656 C 255.433594 165.601562 255.289062 165.601562 255.148438 165.601562 C 248.332031 165.601562 244.984375 161.960938 243.371094 158.867188 C 242.875 157.914062 242.511719 156.964844 242.246094 156.085938 C 241.980469 156.964844 241.621094 157.914062 241.121094 158.867188 C 239.507812 161.960938 236.160156 165.601562 229.34375 165.601562 C 229.203125 165.601562 229.0625 165.601562 228.917969 165.597656 C 228.515625 165.589844 228.195312 165.253906 228.203125 164.851562 Z M 183.726562 263.441406 C 172.007812 263.183594 158.058594 269.0625 152.816406 286.082031 C 151.433594 278.898438 151.15625 271.296875 150.90625 264.5 C 150.445312 251.878906 150.082031 241.910156 143.121094 240.742188 C 141.003906 240.386719 138.867188 241.320312 136.933594 243.441406 C 130.761719 250.203125 126.980469 268.34375 132.957031 292.484375 C 128.925781 290.207031 116.695312 281.960938 104.050781 260.074219 C 103.847656 259.722656 103.402344 259.605469 103.054688 259.804688 C 102.707031 260.007812 102.585938 260.453125 102.789062 260.800781 C 118.449219 287.910156 133.164062 294.285156 133.785156 294.546875 C 133.875 294.582031 133.96875 294.601562 134.0625 294.601562 C 134.238281 294.601562 134.40625 294.539062 134.542969 294.421875 C 134.753906 294.242188 134.839844 293.957031 134.769531 293.6875 C 128.652344 270.378906 131.769531 251.257812 138.011719 244.421875 C 138.953125 243.390625 140.367188 242.246094 142.019531 242.144531 C 141.496094 244.160156 139.921875 251.0625 140.09375 260.550781 C 140.101562 260.949219 140.425781 261.269531 140.820312 261.269531 C 140.828125 261.269531 140.832031 261.269531 140.835938 261.269531 C 141.238281 261.261719 141.558594 260.929688 141.550781 260.527344 C 141.378906 250.984375 143.054688 243.953125 143.480469 242.320312 C 148.691406 243.835938 149.03125 253.023438 149.449219 264.550781 C 149.734375 272.347656 150.058594 281.1875 152.027344 289.339844 C 152.105469 289.667969 152.398438 289.898438 152.738281 289.898438 C 152.738281 289.898438 152.738281 289.898438 152.742188 289.898438 C 153.078125 289.898438 153.371094 289.664062 153.449219 289.335938 C 157.734375 270.910156 171.882812 264.613281 183.695312 264.898438 C 197.175781 265.203125 208.402344 273.183594 210.382812 283.875 C 210.457031 284.273438 210.839844 284.535156 211.234375 284.460938 C 211.628906 284.386719 211.890625 284.003906 211.820312 283.609375 C 209.710938 272.246094 197.894531 263.761719 183.726562 263.441406 Z M 324.3125 127.324219 C 319.660156 119.296875 310.09375 122.402344 307.738281 126.289062 C 310.753906 131.007812 313.351562 136.726562 315.320312 143.632812 C 320.304688 143.714844 329.71875 136.652344 324.3125 127.324219 Z M 256.636719 197.910156 C 240.707031 198.746094 226.429688 204.53125 217.785156 213.527344 C 218.480469 209.640625 218.492188 206.691406 218.488281 204.046875 C 218.464844 184.796875 205.808594 182.945312 205.683594 182.929688 C 205.722656 183.3125 205.789062 184.214844 205.832031 184.40625 C 205.945312 184.421875 217.007812 186.0625 217.03125 204.050781 C 217.03125 207.15625 217.03125 210.679688 215.851562 215.707031 C 212.792969 219.460938 210.824219 223.523438 210.007812 227.78125 C 209.472656 230.59375 209.503906 233.085938 210.097656 235.253906 C 210.085938 235.269531 210.070312 235.277344 210.0625 235.292969 C 209.621094 236.023438 208.644531 237.308594 206.804688 238.46875 C 206.363281 236.769531 205.207031 231.546875 205.628906 224.84375 C 205.652344 224.441406 205.347656 224.09375 204.945312 224.070312 C 204.546875 224.050781 204.199219 224.347656 204.171875 224.753906 C 203.703125 232.273438 205.113281 237.863281 205.488281 239.191406 C 204.132812 239.839844 202.441406 240.386719 200.320312 240.679688 C 199.8125 240.746094 199.316406 240.785156 198.832031 240.804688 C 194.5 235.882812 192.550781 227.371094 192.53125 227.285156 C 192.441406 226.890625 192.058594 226.644531 191.660156 226.734375 C 191.269531 226.820312 191.019531 227.210938 191.109375 227.605469 C 191.1875 227.949219 192.914062 235.519531 196.90625 240.753906 C 189.816406 240.074219 185.375 234.164062 183.75 230.265625 C 183.386719 230.324219 182.472656 230.613281 182.347656 230.691406 C 184.835938 236.664062 190.671875 242.273438 198.316406 242.273438 C 199.035156 242.273438 199.769531 242.226562 200.519531 242.125 C 206.382812 241.320312 209.347656 238.660156 210.691406 236.933594 C 211.257812 238.195312 212.046875 239.328125 213.0625 240.320312 C 219.121094 246.222656 231.574219 245.433594 237.980469 244.03125 L 239.371094 243.726562 C 248.765625 241.667969 254.972656 240.308594 258.191406 242.414062 C 259.519531 243.28125 260.34375 244.734375 260.789062 246.984375 C 260.859375 247.332031 261.164062 247.574219 261.503906 247.574219 C 261.550781 247.574219 261.597656 247.570312 261.648438 247.558594 C 262.042969 247.480469 262.296875 247.097656 262.21875 246.703125 C 261.699219 244.078125 260.644531 242.277344 258.988281 241.195312 C 255.257812 238.75 248.8125 240.164062 239.058594 242.304688 L 237.667969 242.605469 C 233.097656 243.605469 225.328125 244.304688 219.34375 242.3125 C 222.914062 236.5 229.59375 233.929688 229.664062 233.902344 C 230.042969 233.761719 230.234375 233.339844 230.089844 232.964844 C 229.949219 232.585938 229.53125 232.398438 229.152344 232.539062 C 228.847656 232.652344 221.757812 235.375 217.964844 241.785156 C 216.496094 241.15625 215.167969 240.335938 214.082031 239.277344 C 213.546875 238.753906 213.085938 238.183594 212.695312 237.570312 C 215.714844 227.160156 224.296875 223.304688 224.382812 223.265625 C 224.75 223.105469 224.921875 222.675781 224.757812 222.304688 C 224.597656 221.9375 224.171875 221.769531 223.800781 221.929688 C 223.441406 222.085938 215.308594 225.722656 211.769531 235.695312 C 210.992188 233.558594 210.875 231.007812 211.441406 228.058594 C 212.222656 223.984375 214.121094 220.089844 217.089844 216.484375 C 225.203125 206.640625 240.015625 200.242188 256.714844 199.367188 C 276.746094 198.296875 282.117188 219.03125 282.335938 219.914062 C 282.433594 220.308594 282.828125 220.539062 283.21875 220.449219 C 283.609375 220.351562 283.851562 219.957031 283.753906 219.566406 C 283.695312 219.339844 277.910156 196.789062 256.636719 197.910156 Z M 113.371094 203.039062 C 113.410156 203.046875 113.449219 203.046875 113.484375 203.046875 C 113.839844 203.046875 114.148438 202.792969 114.203125 202.429688 C 116.195312 189.695312 118.234375 182.015625 118.253906 181.941406 C 117.71875 181.675781 117.164062 181.554688 116.859375 181.539062 C 116.839844 181.613281 114.769531 189.382812 112.765625 202.207031 C 112.703125 202.605469 112.972656 202.976562 113.371094 203.039062 Z M 203.628906 144.949219 C 206.371094 131.15625 214.859375 119.957031 222.941406 114.15625 C 216.726562 110.828125 207.949219 110.242188 201.25 117.613281 C 191.871094 127.9375 196.875 139.09375 203.628906 144.949219 Z M 203.628906 144.949219 " fill-opacity="1" fill-rule="nonzero"/><path fill="#000000" d="M 229.308594 146.511719 C 229.191406 146.523438 229.078125 146.542969 228.964844 146.546875 C 225.691406 146.738281 219.570312 145.515625 219.140625 138.582031 C 218.945312 135.425781 219.578125 133.261719 220.691406 131.773438 C 222.21875 129.546875 224.636719 128.492188 227.015625 128.125 C 227.871094 127.992188 228.648438 128.058594 229.386719 128.246094 C 231.492188 129.453125 233.164062 131.925781 233.476562 135.8125 C 233.917969 141.21875 232.046875 144.652344 229.308594 146.511719 Z M 287.582031 133.910156 C 287.265625 130.023438 285.59375 127.550781 283.492188 126.339844 C 282.753906 126.15625 281.972656 126.089844 281.121094 126.222656 C 278.742188 126.589844 276.324219 127.644531 274.796875 129.871094 C 273.679688 131.359375 273.050781 133.519531 273.246094 136.679688 C 273.671875 143.613281 279.792969 144.835938 283.066406 144.644531 C 283.183594 144.636719 283.296875 144.621094 283.410156 144.605469 C 286.148438 142.75 288.019531 139.316406 287.582031 133.910156 Z M 252.699219 141.367188 C 252.613281 141.980469 250.21875 143.910156 248.539062 146.351562 C 246.289062 149.625 244.726562 152.117188 243.324219 152.191406 C 240.871094 152.328125 234.691406 144.355469 236.078125 141.949219 C 236.996094 140.359375 241.15625 139.269531 243.324219 139.171875 C 248.304688 138.945312 252.863281 140.164062 252.699219 141.367188 Z M 252.699219 141.367188 " fill-opacity="1" fill-rule="nonzero"/></svg>